<?xml version="1.0" encoding="UTF-8"?>
<!DOCTYPE svg PUBLIC "-//W3C//DTD SVG 1.1//EN" "http://www.w3.org/Graphics/SVG/1.1/DTD/svg11.dtd">
<!-- Creator: CorelDRAW 2020 (64 Bit) -->
<svg xmlns="http://www.w3.org/2000/svg" xml:space="preserve" width="98.6366mm" height="40.9786mm" version="1.1" style="shape-rendering:geometricPrecision; text-rendering:geometricPrecision; image-rendering:optimizeQuality; fill-rule:evenodd; clip-rule:evenodd"
viewBox="0 0 9863.66 4097.86"
 xmlns:xlink="http://www.w3.org/1999/xlink"
 xmlns:xodm="http://www.corel.com/coreldraw/odm/2003">
 <defs>
  <style type="text/css">
   <![CDATA[
    .fil0 {fill:#FEFEFE;fill-rule:nonzero}
   ]]>
  </style>
 </defs>
 <g id="Camada_x0020_1">
  <metadata id="CorelCorpID_0Corel-Layer"/>
  <g id="lightbulb_120808.svg">
   <g>
    <g>
     <g>
      <path class="fil0" d="M4636.66 3253.68c-27.64,0 -50.17,-22.42 -50.17,-50.06 0,-27.64 22.42,-50.06 50.17,-50.06l581.99 0c27.64,0 50.06,22.42 50.06,50.06 0,27.64 -22.42,50.06 -50.06,50.06l-581.99 0z"/>
      <path class="fil0" d="M4701.32 3452.37c-27.64,0 -50.06,-22.42 -50.06,-50.06 0,-27.64 22.53,-50.07 50.06,-50.07l452.66 0c27.64,0 50.06,22.43 50.06,50.07 0,27.64 -22.42,50.06 -50.06,50.06l-452.66 0z"/>
      <path class="fil0" d="M4880.51 2760.25c0,27.53 -22.32,49.85 -49.86,49.85 -27.53,0 -49.85,-22.32 -49.85,-49.85 -0.21,-210.79 -6.26,-368.28 -35.36,-514.09 -28.78,-144.14 -80.31,-277.75 -171.78,-442.54 -13.35,-24.1 -4.69,-54.45 19.3,-67.8 24.1,-13.35 54.45,-4.69 67.9,19.3 97.1,175.01 152.07,317.49 182.73,471.54 30.35,152.06 36.71,315.39 36.92,533.59z"/>
      <path class="fil0" d="M5074.51 2760.25c0,27.53 -22.33,49.85 -49.86,49.85 -27.53,0 -49.85,-22.32 -49.85,-49.85 0.21,-218.2 6.57,-381.42 36.92,-533.59 30.66,-154.05 85.63,-296.52 182.73,-471.54 13.36,-24.09 43.81,-32.75 67.8,-19.3 24.1,13.35 32.64,43.81 19.3,67.8 -91.47,164.79 -143,298.5 -171.78,442.54 -29.01,145.81 -35.16,303.3 -35.26,514.09z"/>
      <path class="fil0" d="M4602.03 1826.88c-26.28,-8.35 -40.68,-36.5 -32.33,-62.79 8.45,-26.29 36.5,-40.68 62.79,-32.33 34.84,11.26 64.98,26.39 92.83,40.36l2.71 1.46c43.49,21.91 79.68,39.01 106.59,17.11l61.54 -50.17c21.38,-17.31 52.88,-14.08 70.19,7.3 17.31,21.38 14.08,52.88 -7.3,70.2l-61.54 50.16c-76.66,62.37 -139.34,32.03 -214.85,-5.84l-2.3 -1.04c-24.4,-12.31 -50.9,-25.56 -78.33,-34.42z"/>
      <path class="fil0" d="M4977.72 690.96c0,27.64 -22.42,50.06 -50.07,50.06 -27.64,0 -50.06,-22.42 -50.06,-50.06l0 -194c0,-27.64 22.42,-50.06 50.06,-50.06 27.65,0 50.07,22.42 50.07,50.06l0 194z"/>
      <path class="fil0" d="M5222.82 1731.75c26.29,-8.44 54.45,6.06 62.79,32.34 8.45,26.28 -6.05,54.44 -32.33,62.79 -27.42,8.86 -53.92,22.21 -78.43,34.52l-2.29 1.05c-75.42,37.86 -138.2,68.31 -214.86,5.84l-61.53 -50.17c-21.38,-17.31 -24.62,-48.81 -7.31,-70.19 17.32,-21.38 48.82,-24.62 70.2,-7.31l61.54 50.17c26.91,21.91 63,4.7 106.59,-17.1l2.72 -1.46c27.93,-14.09 58.07,-29.21 92.91,-40.48z"/>
      <path class="fil0" d="M5557.52 1225.07c161.14,161.15 260.95,383.93 260.95,629.86 0,96.17 -15.43,189.1 -43.8,276.19 -29.31,90.01 -72.8,173.97 -127.56,248.86 -91.88,125.68 -166.45,208.18 -224.34,272.32 -104.2,115.25 -149.88,165.74 -149.88,334.28 0,27.64 -22.43,50.06 -50.06,50.06l-1.26 0 -291.72 0 -293.08 0c-27.64,0 -50.17,-22.42 -50.17,-50.06 0,-166.88 -46.62,-217.88 -150.09,-331.26l-0.1 -0.1 -0.11 0.1c-58.51,-64.03 -133.81,-146.54 -228,-275.34 -54.75,-74.89 -98.25,-158.95 -127.55,-248.96 -28.37,-86.99 -43.81,-180.03 -43.81,-276.08 0,-120.36 24.1,-235.51 67.69,-340.65l0.94 -1.98c45.27,-108.47 111.18,-206.09 192.43,-287.23 81.77,-81.77 179.92,-147.9 289.22,-193.17l0 -0.1c105.14,-43.6 220.28,-67.69 340.65,-67.69 120.16,0 235.19,24.09 340.43,67.69 109.09,45.27 207.44,111.49 289.22,193.26l0 0zm160.72 629.86c0,-218.29 -88.56,-415.94 -231.54,-559.04 -73.11,-73.11 -160.2,-131.94 -256.58,-171.78 -92.82,-38.49 -195.04,-59.76 -302.47,-59.76 -107.32,0 -209.53,21.27 -302.26,59.76l0 -0.1 -0.21 0.1c-96.37,39.84 -183.35,98.67 -256.47,171.78 -72.38,72.38 -130.89,158.74 -170.84,254.07l-1.05 2.71c-38.37,92.72 -59.76,194.93 -59.76,302.26 0,85.73 13.67,168.34 38.7,245.2 26.18,80 64.66,154.47 113.06,220.8 90.43,123.7 164.06,204.33 221.32,267.11l-0.1 0.1c111.39,121.72 166.77,182.63 175.43,348.46l244.16 0 244.17 0c8.55,-166.98 62.89,-227.26 174.8,-350.96 55.91,-61.85 127.77,-141.43 217.78,-264.51 48.39,-66.22 86.88,-140.69 112.96,-220.69 25.24,-77.17 38.9,-159.67 38.9,-245.51z"/>
      <path class="fil0" d="M4765.99 3650.96c-27.64,0 -50.06,-22.43 -50.06,-50.07 0,-27.63 22.42,-50.06 50.06,-50.06l323.33 0c27.64,0 50.06,22.43 50.06,50.06 0,27.64 -22.42,50.07 -50.06,50.07l-323.33 0z"/>
      <path class="fil0" d="M5541.87 868.79c-13.67,23.78 -44.23,32.02 -68.11,18.36 -23.78,-13.67 -32.01,-44.23 -18.35,-68.11l97 -168.02c13.66,-23.78 44.22,-32.02 68.11,-18.36 23.88,13.66 32.02,44.22 18.35,68.11l-97 168.02z"/>
      <path class="fil0" d="M4399.8 819.14c13.66,23.78 5.53,54.34 -18.36,68 -23.78,13.67 -54.34,5.43 -68,-18.35l-97 -168.03c-13.67,-23.78 -5.43,-54.34 18.36,-68 23.88,-13.66 54.44,-5.43 68.1,18.35l96.9 168.03z"/>
      <path class="fil0" d="M3963.51 1218.71c23.78,13.66 32.02,44.22 18.36,68.11 -13.66,23.78 -44.22,32.02 -68,18.36l-168.03 -97c-23.88,-13.67 -32.12,-44.23 -18.46,-68.01 13.66,-23.88 44.22,-32.02 68.11,-18.35l168.02 96.89z"/>
      <path class="fil0" d="M5941.44 1305.17c-23.89,13.67 -54.45,5.43 -68.11,-18.35 -13.67,-23.89 -5.42,-54.45 18.36,-68.11l168.02 -97c23.88,-13.66 54.44,-5.43 68.11,18.36 13.66,23.78 5.42,54.44 -18.36,68.1l-168.02 97z"/>
      <path class="fil0" d="M4407.51 2052.79c10.64,25.34 -1.25,54.65 -26.59,65.29 -25.35,10.64 -54.65,-1.26 -65.29,-26.6 -17,-40.25 -30.25,-82.7 -39.01,-126.51 -8.66,-43.28 -13.35,-87.5 -13.35,-131.93 0,-27.64 22.53,-50.07 50.06,-50.07 27.64,0 50.06,22.53 50.06,50.07 0,39.11 3.86,76.76 11.06,112.43 7.41,37.12 18.67,73.21 33.06,107.32l0 0zm0 -439.62c-10.63,25.34 -39.94,37.23 -65.29,26.59 -25.34,-10.64 -37.23,-39.95 -26.59,-65.29 16.79,-39.74 37.33,-77.39 60.8,-112.33l0.11 -0.1 -0.11 -0.1c24.1,-35.67 51.42,-68.84 81.35,-98.78 29.63,-29.62 62.79,-56.94 98.88,-81.24l0 -0.11c34.63,-23.36 72.48,-43.91 112.54,-60.8 40.15,-17.01 82.5,-30.25 126.41,-39.01 43.28,-8.77 87.71,-13.35 132.04,-13.35 27.64,0 50.06,22.42 50.06,50.06 0,27.64 -22.42,50.06 -50.06,50.06 -39.22,0 -76.97,3.86 -112.54,10.95 -37.24,7.41 -73.22,18.78 -107.22,33.17 -33.06,13.98 -64.98,31.39 -95.33,51.83l0 0 -0.1 0c-29.52,19.82 -57.68,43.18 -83.75,69.26 -25.76,25.76 -49.13,54.03 -69.26,83.96l-0.1 -0.1c-20.34,30.14 -37.76,62.06 -51.84,95.33z"/>
     </g>
    </g>
   </g>
   <g>
   </g>
   <g>
   </g>
   <g>
   </g>
   <g>
   </g>
   <g>
   </g>
   <g>
   </g>
   <g>
   </g>
   <g>
   </g>
   <g>
   </g>
   <g>
   </g>
   <g>
   </g>
   <g>
   </g>
   <g>
   </g>
   <g>
   </g>
   <g>
   </g>
  </g>
 </g>
</svg>
